<svg width="352" height="352" viewBox="0 0 352 352" fill="none"
    xmlns="http://www.w3.org/2000/svg">
    <path fill-rule="evenodd" clip-rule="evenodd" d="M-0.0185547 -0.0185852H0.100045C89.5186 -0.0185852 163.253 66.0745 174.681 151.739V1.48141H174.8C272.165 1.48141 351.019 79.7336 351.019 176.3C351.019 272.866 272.065 351.119 174.8 351.119H174.681V198.059C163.253 283.624 89.5185 349.619 0.100045 349.619H-0.0185547V-0.0185852ZM0.218645 0.218654V349.381C90.1052 349.323 164.094 282.488 174.682 196.186L174.919 196.2V350.881C272 350.818 350.781 272.694 350.781 176.3C350.781 79.9056 272.099 1.78217 174.919 1.71865V153.6L174.682 153.614C164.094 67.2118 90.1051 0.277484 0.218645 0.218654Z" fill="#121212"/>
</svg>
