<svg xmlns="http://www.w3.org/2000/svg" version="1.1" xmlns:xlink="http://www.w3.org/1999/xlink" xmlns:svgjs="http://svgjs.com/svgjs" width="138" height="138"><svg width="138" height="138" viewBox="0 0 138 138" fill="none" xmlns="http://www.w3.org/2000/svg">
    <rect width="138" height="138" fill="#ECEEF1"></rect>
    <path fill-rule="evenodd" clip-rule="evenodd" d="M79.8415 20.17C77.3535 22.463 73.7545 27.134 71.8455 30.549C69.9355 33.964 67.2145 40.075 65.7985 44.129C63.8125 49.815 63.1125 54.129 62.7375 63C62.3705 71.664 62.6305 75.719 63.7905 79.445C64.9025 83.014 65.0315 84.75 64.2565 85.685C63.6655 86.397 60.1955 89.179 56.5455 91.868C52.8955 94.556 48.0355 97.7 45.7455 98.854C43.4555 100.009 39.4055 101.442 36.7455 102.039C34.0855 102.636 30.4125 102.845 28.5835 102.503C26.0255 102.024 24.9345 101.107 23.8555 98.526C22.6605 95.665 22.6565 94.496 23.8305 90.595C24.5885 88.079 26.3325 84.103 27.7075 81.76C29.0825 79.417 33.0655 74.785 36.5585 71.467C40.0515 68.149 44.2475 64.482 45.8825 63.317L48.8555 61.2L46.1945 56.35C44.7305 53.682 42.9005 51.368 42.1285 51.207C41.3555 51.046 37.5025 53.435 33.5645 56.516C29.6265 59.597 24.2095 64.831 21.5265 68.147C18.8425 71.464 15.5115 76.5 14.1225 79.339C12.7345 82.177 11.1255 87.065 10.5475 90.199C9.74647 94.543 9.81247 97.116 10.8245 101.019C11.6635 104.252 13.3925 107.419 15.5165 109.61C17.7195 111.883 20.7845 113.637 24.3945 114.693C29.0475 116.053 31.0035 116.124 36.9095 115.149C41.1405 114.45 47.0745 112.431 51.9095 110.044C56.3095 107.873 62.7325 103.795 66.1835 100.983L72.4575 95.87L76.3005 98.913C78.4135 100.587 82.1285 102.808 84.5555 103.848C86.9815 104.888 91.3395 106.248 94.2375 106.87C97.1365 107.491 101.049 108 102.933 108C106.198 108 106.313 108.121 105.384 110.565C104.848 111.976 104.409 115.115 104.409 117.54C104.409 121.789 104.509 121.934 107.159 121.517C108.671 121.279 111.597 120.82 113.659 120.497C116.922 119.986 117.409 119.558 117.413 117.205C117.415 115.717 118.262 113.114 119.295 111.42C120.328 109.726 122.801 107.567 124.791 106.623C127.88 105.157 128.409 104.419 128.409 101.578C128.409 99.748 128.128 96.844 127.784 95.125C127.275 92.579 126.673 91.999 124.534 91.996C123.09 91.994 120.441 91.097 118.646 90.003C116.851 88.909 114.631 86.436 113.711 84.507C112.315 81.58 111.511 81 108.849 81C107.094 81 104.253 81.281 102.534 81.625C100.815 81.969 99.4135 82.756 99.4195 83.375C99.4245 83.994 100.556 86.921 101.933 89.881L104.438 95.262L99.4825 94.604C96.7565 94.242 92.9785 93.3 91.0885 92.51C89.1975 91.72 86.2505 89.896 84.5385 88.455L81.4265 85.836L84.3905 81.528C86.0205 79.158 88.8955 74.133 90.7795 70.36C92.6635 66.587 95.1455 60.433 96.2945 56.685C97.4435 52.937 98.8745 45.838 99.4745 40.909C100.269 34.366 100.262 30.54 99.4465 26.736C98.7735 23.597 97.2765 20.427 95.6825 18.763C93.5885 16.578 92.1285 16 88.7005 16C85.0025 16 83.6995 16.614 79.8415 20.17ZM85.9525 43.059C85.0815 48.107 83.0135 55.446 81.3565 59.368C79.6995 63.291 77.6995 67.625 76.9115 69C75.5595 71.362 75.4785 71.139 75.4445 64.96C75.4255 61.363 76.1055 55.738 76.9565 52.46C77.8075 49.182 79.6285 44.037 81.0035 41.027C82.3785 38.017 84.2575 34.72 85.1805 33.7C86.1035 32.681 87.0105 32.304 87.1975 32.864C87.3835 33.423 86.8235 38.011 85.9525 43.059Z" fill="#121212"></path>
</svg><style>@media (prefers-color-scheme: light) { :root { filter: none; } }
@media (prefers-color-scheme: dark) { :root { filter: none; } }
</style></svg>